STARTFONT 2.1
FONT -DEC-Terminal-Medium-R-Normal--14-140-75-75-C-80-DEC-DECtech
SIZE 14 75 75
FONTBOUNDINGBOX 8 15 0 -3
COMMENT $XFree86$
COMMENT 
COMMENT +
COMMENT  Copyright (c) 1987, 1994 Digital Equipment Corporation
COMMENT 
COMMENT  The X Consortium, and any party obtaining a copy of these files from
COMMENT  the X Consortium, directly or indirectly, is granted, free of charge, a
COMMENT  full and unrestricted irrevocable, world-wide, paid up, royalty-free,
COMMENT  nonexclusive right and license to deal in this software and
COMMENT  documentation files (the "Software"), including without limitation the
COMMENT  rights to use, copy, modify, merge, publish, distribute, sublicense,
COMMENT  and/or sell copies of the Software, and to permit persons who receive
COMMENT  copies from any such party to do so.  This license includes without
COMMENT  limitation a license to do the foregoing actions under any patents of
COMMENT  the party supplying this software to the X Consortium.
COMMENT 
COMMENT  Digital Equipment Corporation make no representations about the
COMMENT  suitability of this software for any purpose.  It is provided "as
COMMENT  is" without express or implied warranty.
COMMENT -
STARTPROPERTIES 21
FOUNDRY "DEC"
FAMILY_NAME "Terminal"
WEIGHT_NAME "Medium"
SLANT "R"
SETWIDTH_NAME "Normal"
ADD_STYLE_NAME ""
PIXEL_SIZE 14
POINT_SIZE 140
RESOLUTION_X 75
RESOLUTION_Y 75
SPACING "C"
AVERAGE_WIDTH 80
CHARSET_REGISTRY "DEC"
CHARSET_ENCODING "DECtech"
CAP_HEIGHT 8
FONT_ASCENT 12
FONT_DESCENT 3
DEFAULT_CHAR 159
COPYRIGHT "Copyright (c) 1991 Digital Equipment Corporation. All Rights Reserved."
_DEC_PRODUCTINFO "DECterm Fonts V2.2, 11-Nov-1991"
FULL_NAME "Terminal DECtech"
ENDPROPERTIES
CHARS 182
STARTCHAR space
ENCODING 32
SWIDTH 570 0
DWIDTH 8 0
BBX 1 1 0 0
BITMAP
00
ENDCHAR
STARTCHAR exclam
ENCODING 33
SWIDTH 570 0
DWIDTH 8 0
BBX 1 8 3 0
BITMAP
80
80
80
80
80
00
80
80
ENDCHAR
STARTCHAR quotedbl
ENCODING 34
SWIDTH 570 0
DWIDTH 8 0
BBX 4 3 2 6
BITMAP
90
90
90
ENDCHAR
STARTCHAR numbersign
ENCODING 35
SWIDTH 570 0
DWIDTH 8 0
BBX 6 7 1 1
BITMAP
48
48
FC
48
FC
48
48
ENDCHAR
STARTCHAR dollar
ENCODING 36
SWIDTH 570 0
DWIDTH 8 0
BBX 5 8 2 0
BITMAP
20
70
A8
60
30
A8
70
20
ENDCHAR
STARTCHAR percent
ENCODING 37
SWIDTH 570 0
DWIDTH 8 0
BBX 6 8 1 0
BITMAP
48
B8
50
10
20
28
54
48
ENDCHAR
STARTCHAR ampersand
ENCODING 38
SWIDTH 570 0
DWIDTH 8 0
BBX 6 8 1 0
BITMAP
20
50
50
20
54
88
88
74
ENDCHAR
STARTCHAR quoteright
ENCODING 39
SWIDTH 570 0
DWIDTH 8 0
BBX 2 3 3 6
BITMAP
40
40
80
ENDCHAR
STARTCHAR parenleft
ENCODING 40
SWIDTH 570 0
DWIDTH 8 0
BBX 3 10 3 -1
BITMAP
20
40
40
80
80
80
80
40
40
20
ENDCHAR
STARTCHAR parenright
ENCODING 41
SWIDTH 570 0
DWIDTH 8 0
BBX 3 10 2 -1
BITMAP
80
40
40
20
20
20
20
40
40
80
ENDCHAR
STARTCHAR asterisk
ENCODING 42
SWIDTH 570 0
DWIDTH 8 0
BBX 5 6 2 2
BITMAP
20
A8
70
70
A8
20
ENDCHAR
STARTCHAR plus
ENCODING 43
SWIDTH 570 0
DWIDTH 8 0
BBX 5 5 2 1
BITMAP
20
20
F8
20
20
ENDCHAR
STARTCHAR comma
ENCODING 44
SWIDTH 570 0
DWIDTH 8 0
BBX 2 3 2 -1
BITMAP
40
40
80
ENDCHAR
STARTCHAR minus
ENCODING 45
SWIDTH 570 0
DWIDTH 8 0
BBX 6 1 1 3
BITMAP
FC
ENDCHAR
STARTCHAR period
ENCODING 46
SWIDTH 570 0
DWIDTH 8 0
BBX 1 2 3 0
BITMAP
80
80
ENDCHAR
STARTCHAR slash
ENCODING 47
SWIDTH 570 0
DWIDTH 8 0
BBX 4 10 2 -1
BITMAP
10
10
20
20
20
40
40
40
80
80
ENDCHAR
STARTCHAR zero
ENCODING 48
SWIDTH 570 0
DWIDTH 8 0
BBX 5 8 2 0
BITMAP
70
88
88
88
88
88
88
70
ENDCHAR
STARTCHAR one
ENCODING 49
SWIDTH 570 0
DWIDTH 8 0
BBX 5 8 2 0
BITMAP
20
60
A0
20
20
20
20
F8
ENDCHAR
STARTCHAR two
ENCODING 50
SWIDTH 570 0
DWIDTH 8 0
BBX 5 8 2 0
BITMAP
70
88
08
10
20
40
80
F8
ENDCHAR
STARTCHAR three
ENCODING 51
SWIDTH 570 0
DWIDTH 8 0
BBX 5 8 2 0
BITMAP
70
88
08
30
08
08
88
70
ENDCHAR
STARTCHAR four
ENCODING 52
SWIDTH 570 0
DWIDTH 8 0
BBX 5 8 2 0
BITMAP
10
30
50
50
90
F8
10
10
ENDCHAR
STARTCHAR five
ENCODING 53
SWIDTH 570 0
DWIDTH 8 0
BBX 5 8 2 0
BITMAP
F8
80
80
F0
88
08
88
70
ENDCHAR
STARTCHAR six
ENCODING 54
SWIDTH 570 0
DWIDTH 8 0
BBX 5 8 2 0
BITMAP
30
40
80
F0
88
88
88
70
ENDCHAR
STARTCHAR seven
ENCODING 55
SWIDTH 570 0
DWIDTH 8 0
BBX 5 8 2 0
BITMAP
F8
08
10
20
20
40
40
40
ENDCHAR
STARTCHAR eight
ENCODING 56
SWIDTH 570 0
DWIDTH 8 0
BBX 5 8 2 0
BITMAP
70
88
88
70
88
88
88
70
ENDCHAR
STARTCHAR nine
ENCODING 57
SWIDTH 570 0
DWIDTH 8 0
BBX 5 8 2 0
BITMAP
70
88
88
88
78
08
10
60
ENDCHAR
STARTCHAR colon
ENCODING 58
SWIDTH 570 0
DWIDTH 8 0
BBX 1 6 3 0
BITMAP
80
80
00
00
80
80
ENDCHAR
STARTCHAR semicolon
ENCODING 59
SWIDTH 570 0
DWIDTH 8 0
BBX 2 7 2 -1
BITMAP
40
40
00
00
40
40
80
ENDCHAR
STARTCHAR less
ENCODING 60
SWIDTH 570 0
DWIDTH 8 0
BBX 4 7 2 0
BITMAP
10
20
40
80
40
20
10
ENDCHAR
STARTCHAR equal
ENCODING 61
SWIDTH 570 0
DWIDTH 8 0
BBX 6 3 1 2
BITMAP
FC
00
FC
ENDCHAR
STARTCHAR greater
ENCODING 62
SWIDTH 570 0
DWIDTH 8 0
BBX 4 7 2 0
BITMAP
80
40
20
10
20
40
80
ENDCHAR
STARTCHAR question
ENCODING 63
SWIDTH 570 0
DWIDTH 8 0
BBX 5 8 1 0
BITMAP
70
88
08
10
20
00
20
20
ENDCHAR
STARTCHAR at
ENCODING 64
SWIDTH 570 0
DWIDTH 8 0
BBX 6 8 1 0
BITMAP
78
84
9C
A4
A4
9C
80
78
ENDCHAR
STARTCHAR A
ENCODING 65
SWIDTH 570 0
DWIDTH 8 0
BBX 6 8 1 0
BITMAP
30
48
84
84
FC
84
84
84
ENDCHAR
STARTCHAR B
ENCODING 66
SWIDTH 570 0
DWIDTH 8 0
BBX 6 8 1 0
BITMAP
F8
84
84
F8
84
84
84
F8
ENDCHAR
STARTCHAR C
ENCODING 67
SWIDTH 570 0
DWIDTH 8 0
BBX 6 8 1 0
BITMAP
78
84
80
80
80
80
84
78
ENDCHAR
STARTCHAR D
ENCODING 68
SWIDTH 570 0
DWIDTH 8 0
BBX 6 8 1 0
BITMAP
F8
84
84
84
84
84
84
F8
ENDCHAR
STARTCHAR E
ENCODING 69
SWIDTH 570 0
DWIDTH 8 0
BBX 5 8 2 0
BITMAP
F8
80
80
F0
80
80
80
F8
ENDCHAR
STARTCHAR F
ENCODING 70
SWIDTH 570 0
DWIDTH 8 0
BBX 5 8 2 0
BITMAP
F8
80
80
80
F0
80
80
80
ENDCHAR
STARTCHAR G
ENCODING 71
SWIDTH 570 0
DWIDTH 8 0
BBX 6 8 1 0
BITMAP
78
84
80
9C
84
84
84
78
ENDCHAR
STARTCHAR H
ENCODING 72
SWIDTH 570 0
DWIDTH 8 0
BBX 6 8 1 0
BITMAP
84
84
84
FC
84
84
84
84
ENDCHAR
STARTCHAR I
ENCODING 73
SWIDTH 570 0
DWIDTH 8 0
BBX 5 8 2 0
BITMAP
F8
20
20
20
20
20
20
F8
ENDCHAR
STARTCHAR J
ENCODING 74
SWIDTH 570 0
DWIDTH 8 0
BBX 6 8 1 0
BITMAP
3C
08
08
08
08
08
88
70
ENDCHAR
STARTCHAR K
ENCODING 75
SWIDTH 570 0
DWIDTH 8 0
BBX 5 8 2 0
BITMAP
88
90
A0
C0
C0
A0
90
88
ENDCHAR
STARTCHAR L
ENCODING 76
SWIDTH 570 0
DWIDTH 8 0
BBX 5 8 2 0
BITMAP
80
80
80
80
80
80
80
F8
ENDCHAR
STARTCHAR M
ENCODING 77
SWIDTH 570 0
DWIDTH 8 0
BBX 7 8 1 0
BITMAP
82
C6
AA
AA
92
92
82
82
ENDCHAR
STARTCHAR N
ENCODING 78
SWIDTH 570 0
DWIDTH 8 0
BBX 6 8 1 0
BITMAP
84
C4
A4
A4
94
94
8C
84
ENDCHAR
STARTCHAR O
ENCODING 79
SWIDTH 570 0
DWIDTH 8 0
BBX 6 8 1 0
BITMAP
78
84
84
84
84
84
84
78
ENDCHAR
STARTCHAR P
ENCODING 80
SWIDTH 570 0
DWIDTH 8 0
BBX 6 8 1 0
BITMAP
F8
84
84
84
F8
80
80
80
ENDCHAR
STARTCHAR Q
ENCODING 81
SWIDTH 570 0
DWIDTH 8 0
BBX 6 9 1 -1
BITMAP
78
84
84
84
84
A4
94
78
04
ENDCHAR
STARTCHAR R
ENCODING 82
SWIDTH 570 0
DWIDTH 8 0
BBX 6 8 1 0
BITMAP
F8
84
84
84
F8
90
88
84
ENDCHAR
STARTCHAR S
ENCODING 83
SWIDTH 570 0
DWIDTH 8 0
BBX 6 8 1 0
BITMAP
78
84
80
78
04
04
84
78
ENDCHAR
STARTCHAR T
ENCODING 84
SWIDTH 570 0
DWIDTH 8 0
BBX 5 8 2 0
BITMAP
F8
20
20
20
20
20
20
20
ENDCHAR
STARTCHAR U
ENCODING 85
SWIDTH 570 0
DWIDTH 8 0
BBX 6 8 1 0
BITMAP
84
84
84
84
84
84
84
78
ENDCHAR
STARTCHAR V
ENCODING 86
SWIDTH 570 0
DWIDTH 8 0
BBX 7 8 1 0
BITMAP
82
82
44
44
28
28
10
10
ENDCHAR
STARTCHAR W
ENCODING 87
SWIDTH 570 0
DWIDTH 8 0
BBX 7 8 1 0
BITMAP
82
82
82
92
92
92
92
6C
ENDCHAR
STARTCHAR X
ENCODING 88
SWIDTH 570 0
DWIDTH 8 0
BBX 7 8 1 0
BITMAP
C6
44
28
10
10
28
44
C6
ENDCHAR
STARTCHAR Y
ENCODING 89
SWIDTH 570 0
DWIDTH 8 0
BBX 7 8 1 0
BITMAP
82
82
44
28
10
10
10
10
ENDCHAR
STARTCHAR Z
ENCODING 90
SWIDTH 570 0
DWIDTH 8 0
BBX 6 8 1 0
BITMAP
FC
04
08
10
20
40
80
FC
ENDCHAR
STARTCHAR bracketleft
ENCODING 91
SWIDTH 570 0
DWIDTH 8 0
BBX 3 10 3 -1
BITMAP
E0
80
80
80
80
80
80
80
80
E0
ENDCHAR
STARTCHAR backslash
ENCODING 92
SWIDTH 570 0
DWIDTH 8 0
BBX 4 10 2 -1
BITMAP
80
80
40
40
40
20
20
20
10
10
ENDCHAR
STARTCHAR bracketright
ENCODING 93
SWIDTH 570 0
DWIDTH 8 0
BBX 3 10 2 -1
BITMAP
E0
20
20
20
20
20
20
20
20
E0
ENDCHAR
STARTCHAR asciicircum
ENCODING 94
SWIDTH 570 0
DWIDTH 8 0
BBX 5 3 2 3
BITMAP
20
50
88
ENDCHAR
STARTCHAR ldblank
ENCODING 95
SWIDTH 570 0
DWIDTH 8 0
BBX 1 1 0 0
BITMAP
00
ENDCHAR
STARTCHAR diamond
ENCODING 96
SWIDTH 570 0
DWIDTH 8 0
BBX 7 7 1 2
BITMAP
10
38
7C
FE
7C
38
10
ENDCHAR
STARTCHAR checkerboard
ENCODING 97
SWIDTH 570 0
DWIDTH 8 0
BBX 8 15 0 -3
BITMAP
AA
55
AA
55
AA
55
AA
55
AA
55
AA
55
AA
55
AA
ENDCHAR
STARTCHAR HT
ENCODING 98
SWIDTH 570 0
DWIDTH 8 0
BBX 6 11 1 -1
BITMAP
90
90
F0
90
90
00
7C
10
10
10
10
ENDCHAR
STARTCHAR FF
ENCODING 99
SWIDTH 570 0
DWIDTH 8 0
BBX 6 11 1 -1
BITMAP
F0
80
E0
80
80
00
3C
20
38
20
20
ENDCHAR
STARTCHAR CR
ENCODING 100
SWIDTH 570 0
DWIDTH 8 0
BBX 6 11 1 -1
BITMAP
70
80
80
80
70
00
78
44
78
48
44
ENDCHAR
STARTCHAR LF
ENCODING 101
SWIDTH 570 0
DWIDTH 8 0
BBX 6 11 1 -1
BITMAP
80
80
80
80
F0
00
3C
20
38
20
20
ENDCHAR
STARTCHAR degree
ENCODING 102
SWIDTH 570 0
DWIDTH 8 0
BBX 3 3 2 6
BITMAP
40
A0
40
ENDCHAR
STARTCHAR plusminus
ENCODING 103
SWIDTH 570 0
DWIDTH 8 0
BBX 5 7 2 0
BITMAP
20
20
F8
20
20
00
F8
ENDCHAR
STARTCHAR NL
ENCODING 104
SWIDTH 570 0
DWIDTH 8 0
BBX 6 11 1 -1
BITMAP
88
C8
A8
98
88
00
20
20
20
20
3C
ENDCHAR
STARTCHAR VT
ENCODING 105
SWIDTH 570 0
DWIDTH 8 0
BBX 6 11 1 -1
BITMAP
88
88
88
50
20
00
7C
10
10
10
10
ENDCHAR
STARTCHAR ldcornsqlr
ENCODING 106
SWIDTH 570 0
DWIDTH 8 0
BBX 5 8 0 4
BITMAP
08
08
08
08
08
08
08
F8
ENDCHAR
STARTCHAR ldcornsqur
ENCODING 107
SWIDTH 570 0
DWIDTH 8 0
BBX 5 8 0 -3
BITMAP
F8
08
08
08
08
08
08
08
ENDCHAR
STARTCHAR ldcornsqul
ENCODING 108
SWIDTH 570 0
DWIDTH 8 0
BBX 4 8 4 -3
BITMAP
F0
80
80
80
80
80
80
80
ENDCHAR
STARTCHAR ldcornsqll
ENCODING 109
SWIDTH 570 0
DWIDTH 8 0
BBX 4 8 4 4
BITMAP
80
80
80
80
80
80
80
F0
ENDCHAR
STARTCHAR ldcross
ENCODING 110
SWIDTH 570 0
DWIDTH 8 0
BBX 8 15 0 -3
BITMAP
08
08
08
08
08
08
08
FF
08
08
08
08
08
08
08
ENDCHAR
STARTCHAR ldscan1
ENCODING 111
SWIDTH 570 0
DWIDTH 8 0
BBX 8 1 0 9
BITMAP
FF
ENDCHAR
STARTCHAR ldscan3
ENCODING 112
SWIDTH 570 0
DWIDTH 8 0
BBX 8 1 0 6
BITMAP
FF
ENDCHAR
STARTCHAR ldhorizontal
ENCODING 113
SWIDTH 570 0
DWIDTH 8 0
BBX 8 1 0 4
BITMAP
FF
ENDCHAR
STARTCHAR ldscan7
ENCODING 114
SWIDTH 570 0
DWIDTH 8 0
BBX 8 1 0 1
BITMAP
FF
ENDCHAR
STARTCHAR ldscan9
ENCODING 115
SWIDTH 570 0
DWIDTH 8 0
BBX 8 1 0 -2
BITMAP
FF
ENDCHAR
STARTCHAR ldteelft
ENCODING 116
SWIDTH 570 0
DWIDTH 8 0
BBX 4 15 4 -3
BITMAP
80
80
80
80
80
80
80
F0
80
80
80
80
80
80
80
ENDCHAR
STARTCHAR ldteert
ENCODING 117
SWIDTH 570 0
DWIDTH 8 0
BBX 5 15 0 -3
BITMAP
08
08
08
08
08
08
08
F8
08
08
08
08
08
08
08
ENDCHAR
STARTCHAR ldteebt
ENCODING 118
SWIDTH 570 0
DWIDTH 8 0
BBX 8 8 0 4
BITMAP
08
08
08
08
08
08
08
FF
ENDCHAR
STARTCHAR ldteetp
ENCODING 119
SWIDTH 570 0
DWIDTH 8 0
BBX 8 8 0 -3
BITMAP
FF
08
08
08
08
08
08
08
ENDCHAR
STARTCHAR ldvertical
ENCODING 120
SWIDTH 570 0
DWIDTH 8 0
BBX 1 15 4 -3
BITMAP
80
80
80
80
80
80
80
80
80
80
80
80
80
80
80
ENDCHAR
STARTCHAR lessequal
ENCODING 121
SWIDTH 570 0
DWIDTH 8 0
BBX 4 9 2 0
BITMAP
10
20
40
80
40
20
10
00
F0
ENDCHAR
STARTCHAR greaterequal
ENCODING 122
SWIDTH 570 0
DWIDTH 8 0
BBX 4 9 2 0
BITMAP
80
40
20
10
20
40
80
00
F0
ENDCHAR
STARTCHAR pi
ENCODING 123
SWIDTH 570 0
DWIDTH 8 0
BBX 6 6 1 0
BITMAP
FC
48
48
48
48
88
ENDCHAR
STARTCHAR notequal
ENCODING 124
SWIDTH 570 0
DWIDTH 8 0
BBX 6 5 1 1
BITMAP
08
FC
30
FC
40
ENDCHAR
STARTCHAR sterling
ENCODING 125
SWIDTH 570 0
DWIDTH 8 0
BBX 7 8 1 0
BITMAP
18
24
24
20
78
20
62
DC
ENDCHAR
STARTCHAR periodcentered
ENCODING 126
SWIDTH 570 0
DWIDTH 8 0
BBX 1 2 3 4
BITMAP
80
80
ENDCHAR
STARTCHAR Error
ENCODING 159
SWIDTH 570 0
DWIDTH 8 0
BBX 6 15 1 -3
BITMAP
78
FC
CC
CC
C0
60
30
30
30
30
00
00
30
30
30
ENDCHAR
STARTCHAR space
ENCODING 160
SWIDTH 570 0
DWIDTH 8 0
BBX 1 1 0 0
BITMAP
00
ENDCHAR
STARTCHAR ldradicalbt
ENCODING 161
SWIDTH 570 0
DWIDTH 8 0
BBX 4 12 1 0
BITMAP
10
10
10
10
10
10
10
10
10
D0
30
10
ENDCHAR
STARTCHAR ldradicaltp
ENCODING 162
SWIDTH 570 0
DWIDTH 8 0
BBX 4 8 4 -3
BITMAP
F0
80
80
80
80
80
80
80
ENDCHAR
STARTCHAR ldhorizontal
ENCODING 163
SWIDTH 570 0
DWIDTH 8 0
BBX 8 1 0 4
BITMAP
FF
ENDCHAR
STARTCHAR ldintegraltp
ENCODING 164
SWIDTH 570 0
DWIDTH 8 0
BBX 4 11 4 -3
BITMAP
60
90
80
80
80
80
80
80
80
80
80
ENDCHAR
STARTCHAR ldintegralbt
ENCODING 165
SWIDTH 570 0
DWIDTH 8 0
BBX 4 11 1 1
BITMAP
10
10
10
10
10
10
10
10
10
90
60
ENDCHAR
STARTCHAR ldvertical
ENCODING 166
SWIDTH 570 0
DWIDTH 8 0
BBX 1 15 4 -3
BITMAP
80
80
80
80
80
80
80
80
80
80
80
80
80
80
80
ENDCHAR
STARTCHAR ldbracketlfttp
ENCODING 167
SWIDTH 570 0
DWIDTH 8 0
BBX 4 14 4 -3
BITMAP
F0
80
80
80
80
80
80
80
80
80
80
80
80
80
ENDCHAR
STARTCHAR ldbracketlftbt
ENCODING 168
SWIDTH 570 0
DWIDTH 8 0
BBX 4 14 4 -2
BITMAP
80
80
80
80
80
80
80
80
80
80
80
80
80
F0
ENDCHAR
STARTCHAR ldbracketrttp
ENCODING 169
SWIDTH 570 0
DWIDTH 8 0
BBX 4 14 1 -3
BITMAP
F0
10
10
10
10
10
10
10
10
10
10
10
10
10
ENDCHAR
STARTCHAR ldbracketrtbt
ENCODING 170
SWIDTH 570 0
DWIDTH 8 0
BBX 4 14 1 -2
BITMAP
10
10
10
10
10
10
10
10
10
10
10
10
10
F0
ENDCHAR
STARTCHAR ldbracelfttp
ENCODING 171
SWIDTH 570 0
DWIDTH 8 0
BBX 4 14 4 -3
BITMAP
70
80
80
80
80
80
80
80
80
80
80
80
80
80
ENDCHAR
STARTCHAR ldbracelftbt
ENCODING 172
SWIDTH 570 0
DWIDTH 8 0
BBX 4 14 4 -2
BITMAP
80
80
80
80
80
80
80
80
80
80
80
80
80
70
ENDCHAR
STARTCHAR ldbracerttp
ENCODING 173
SWIDTH 570 0
DWIDTH 8 0
BBX 4 14 1 -3
BITMAP
E0
10
10
10
10
10
10
10
10
10
10
10
10
10
ENDCHAR
STARTCHAR ldbracertbt
ENCODING 174
SWIDTH 570 0
DWIDTH 8 0
BBX 4 14 1 -2
BITMAP
10
10
10
10
10
10
10
10
10
10
10
10
10
E0
ENDCHAR
STARTCHAR ldbracelftmid
ENCODING 175
SWIDTH 570 0
DWIDTH 8 0
BBX 3 15 2 -3
BITMAP
20
20
20
20
20
20
40
80
40
20
20
20
20
20
20
ENDCHAR
STARTCHAR ldbracertmid
ENCODING 176
SWIDTH 570 0
DWIDTH 8 0
BBX 3 15 4 -3
BITMAP
80
80
80
80
80
80
40
20
40
80
80
80
80
80
80
ENDCHAR
STARTCHAR ldsigmalfttp
ENCODING 177
SWIDTH 570 0
DWIDTH 8 0
BBX 4 8 4 -3
BITMAP
F0
80
40
40
20
20
10
10
ENDCHAR
STARTCHAR ldsigmalftbt
ENCODING 178
SWIDTH 570 0
DWIDTH 8 0
BBX 4 8 4 4
BITMAP
10
10
20
20
40
40
80
F0
ENDCHAR
STARTCHAR ldbackslash
ENCODING 179
SWIDTH 570 0
DWIDTH 8 0
BBX 8 15 0 -3
BITMAP
80
80
40
40
20
20
10
08
08
04
04
02
02
01
01
ENDCHAR
STARTCHAR ldslash
ENCODING 180
SWIDTH 570 0
DWIDTH 8 0
BBX 8 15 0 -3
BITMAP
01
01
02
02
04
04
08
08
10
20
20
40
40
80
80
ENDCHAR
STARTCHAR ldsigmarttp
ENCODING 181
SWIDTH 570 0
DWIDTH 8 0
BBX 7 3 0 2
BITMAP
FE
02
02
ENDCHAR
STARTCHAR ldsigmartbt
ENCODING 182
SWIDTH 570 0
DWIDTH 8 0
BBX 7 3 0 4
BITMAP
02
02
FE
ENDCHAR
STARTCHAR ldsigmamid
ENCODING 183
SWIDTH 570 0
DWIDTH 8 0
BBX 4 15 0 -3
BITMAP
80
80
40
40
20
20
10
10
10
20
20
40
40
80
80
ENDCHAR
STARTCHAR lessequal
ENCODING 188
SWIDTH 570 0
DWIDTH 8 0
BBX 4 9 2 0
BITMAP
10
20
40
80
40
20
10
00
F0
ENDCHAR
STARTCHAR notequal
ENCODING 189
SWIDTH 570 0
DWIDTH 8 0
BBX 6 5 1 1
BITMAP
08
FC
30
FC
40
ENDCHAR
STARTCHAR greaterequal
ENCODING 190
SWIDTH 570 0
DWIDTH 8 0
BBX 4 9 2 0
BITMAP
80
40
20
10
20
40
80
00
F0
ENDCHAR
STARTCHAR integral
ENCODING 191
SWIDTH 570 0
DWIDTH 8 0
BBX 5 12 2 -1
BITMAP
10
28
20
20
20
20
20
20
20
20
A0
40
ENDCHAR
STARTCHAR therefore
ENCODING 192
SWIDTH 570 0
DWIDTH 8 0
BBX 5 6 2 1
BITMAP
20
00
00
00
00
88
ENDCHAR
STARTCHAR proportional
ENCODING 193
SWIDTH 570 0
DWIDTH 8 0
BBX 6 5 1 1
BITMAP
44
A8
90
A8
44
ENDCHAR
STARTCHAR infinity
ENCODING 194
SWIDTH 570 0
DWIDTH 8 0
BBX 6 5 1 1
BITMAP
58
A4
A4
A4
58
ENDCHAR
STARTCHAR divide
ENCODING 195
SWIDTH 570 0
DWIDTH 8 0
BBX 5 5 2 1
BITMAP
20
00
F8
00
20
ENDCHAR
STARTCHAR Delta
ENCODING 196
SWIDTH 570 0
DWIDTH 8 0
BBX 5 5 2 1
BITMAP
20
50
88
88
F8
ENDCHAR
STARTCHAR gradient
ENCODING 197
SWIDTH 570 0
DWIDTH 8 0
BBX 5 5 2 1
BITMAP
F8
88
88
50
20
ENDCHAR
STARTCHAR Phi
ENCODING 198
SWIDTH 570 0
DWIDTH 8 0
BBX 5 8 2 0
BITMAP
70
20
70
A8
A8
70
20
70
ENDCHAR
STARTCHAR Gamma
ENCODING 199
SWIDTH 570 0
DWIDTH 8 0
BBX 5 8 2 0
BITMAP
F8
48
40
40
40
40
40
E0
ENDCHAR
STARTCHAR similar
ENCODING 200
SWIDTH 570 0
DWIDTH 8 0
BBX 6 3 1 3
BITMAP
64
94
88
ENDCHAR
STARTCHAR approxequal
ENCODING 201
SWIDTH 570 0
DWIDTH 8 0
BBX 6 5 1 1
BITMAP
64
94
88
00
FC
ENDCHAR
STARTCHAR Theta
ENCODING 202
SWIDTH 570 0
DWIDTH 8 0
BBX 6 8 1 0
BITMAP
30
48
84
B4
84
84
48
30
ENDCHAR
STARTCHAR multiply
ENCODING 203
SWIDTH 570 0
DWIDTH 8 0
BBX 5 5 2 1
BITMAP
88
50
20
50
88
ENDCHAR
STARTCHAR Lambda
ENCODING 204
SWIDTH 570 0
DWIDTH 8 0
BBX 7 8 1 0
BITMAP
10
28
44
44
44
44
44
C6
ENDCHAR
STARTCHAR arrowdblboth
ENCODING 205
SWIDTH 570 0
DWIDTH 8 0
BBX 8 7 0 1
BITMAP
24
42
7E
C3
7E
42
24
ENDCHAR
STARTCHAR arrowdblright
ENCODING 206
SWIDTH 570 0
DWIDTH 8 0
BBX 7 7 1 1
BITMAP
10
08
FC
02
FC
08
10
ENDCHAR
STARTCHAR equivalence
ENCODING 207
SWIDTH 570 0
DWIDTH 8 0
BBX 6 5 1 1
BITMAP
FC
00
FC
00
FC
ENDCHAR
STARTCHAR Pi
ENCODING 208
SWIDTH 570 0
DWIDTH 8 0
BBX 6 8 1 0
BITMAP
FC
48
48
48
48
48
48
48
ENDCHAR
STARTCHAR Psi
ENCODING 209
SWIDTH 570 0
DWIDTH 8 0
BBX 7 8 1 0
BITMAP
D6
54
54
54
38
10
10
38
ENDCHAR
STARTCHAR Sigma
ENCODING 211
SWIDTH 570 0
DWIDTH 8 0
BBX 6 8 1 0
BITMAP
FC
44
20
10
20
40
84
FC
ENDCHAR
STARTCHAR radica0l
ENCODING 214
SWIDTH 570 0
DWIDTH 8 0
BBX 7 9 1 0
BITMAP
06
04
04
08
08
10
90
50
20
ENDCHAR
STARTCHAR Omega
ENCODING 215
SWIDTH 570 0
DWIDTH 8 0
BBX 7 8 1 0
BITMAP
38
44
82
82
82
44
44
C6
ENDCHAR
STARTCHAR Xi
ENCODING 216
SWIDTH 570 0
DWIDTH 8 0
BBX 6 8 1 0
BITMAP
FC
00
00
78
00
00
00
FC
ENDCHAR
STARTCHAR Upsilon1
ENCODING 217
SWIDTH 570 0
DWIDTH 8 0
BBX 7 8 1 0
BITMAP
82
82
44
28
10
10
10
10
ENDCHAR
STARTCHAR propersubset
ENCODING 218
SWIDTH 570 0
DWIDTH 8 0
BBX 6 5 1 1
BITMAP
7C
80
80
80
7C
ENDCHAR
STARTCHAR propersuperset
ENCODING 219
SWIDTH 570 0
DWIDTH 8 0
BBX 6 5 1 1
BITMAP
F8
04
04
04
F8
ENDCHAR
STARTCHAR intersection
ENCODING 220
SWIDTH 570 0
DWIDTH 8 0
BBX 5 6 2 0
BITMAP
70
88
88
88
88
88
ENDCHAR
STARTCHAR union
ENCODING 221
SWIDTH 570 0
DWIDTH 8 0
BBX 5 6 2 0
BITMAP
88
88
88
88
88
70
ENDCHAR
STARTCHAR logicaland
ENCODING 222
SWIDTH 570 0
DWIDTH 8 0
BBX 5 6 2 0
BITMAP
20
50
50
88
88
88
ENDCHAR
STARTCHAR logicalor
ENCODING 223
SWIDTH 570 0
DWIDTH 8 0
BBX 5 6 2 0
BITMAP
88
88
88
50
50
20
ENDCHAR
STARTCHAR logicalnot
ENCODING 224
SWIDTH 570 0
DWIDTH 8 0
BBX 6 3 1 1
BITMAP
FC
04
04
ENDCHAR
STARTCHAR alpha
ENCODING 225
SWIDTH 570 0
DWIDTH 8 0
BBX 7 6 1 0
BITMAP
20
52
8C
88
94
62
ENDCHAR
STARTCHAR beta
ENCODING 226
SWIDTH 570 0
DWIDTH 8 0
BBX 6 9 1 0
BITMAP
08
14
14
24
38
44
44
C4
B8
ENDCHAR
STARTCHAR chi
ENCODING 227
SWIDTH 570 0
DWIDTH 8 0
BBX 6 7 1 -1
BITMAP
44
A8
10
30
48
88
84
ENDCHAR
STARTCHAR delta
ENCODING 228
SWIDTH 570 0
DWIDTH 8 0
BBX 5 8 1 0
BITMAP
38
40
70
88
88
88
88
70
ENDCHAR
STARTCHAR epsilon
ENCODING 229
SWIDTH 570 0
DWIDTH 8 0
BBX 5 6 1 0
BITMAP
78
80
F0
80
80
78
ENDCHAR
STARTCHAR phi
ENCODING 230
SWIDTH 570 0
DWIDTH 8 0
BBX 6 8 1 -1
BITMAP
10
78
94
94
A4
A4
78
20
ENDCHAR
STARTCHAR gamma
ENCODING 231
SWIDTH 570 0
DWIDTH 8 0
BBX 7 8 1 -2
BITMAP
42
A4
24
28
10
10
10
10
ENDCHAR
STARTCHAR eta
ENCODING 232
SWIDTH 570 0
DWIDTH 8 0
BBX 6 7 1 -1
BITMAP
D8
64
44
44
44
44
04
ENDCHAR
STARTCHAR iota
ENCODING 233
SWIDTH 570 0
DWIDTH 8 0
BBX 4 6 3 0
BITMAP
80
80
80
80
90
60
ENDCHAR
STARTCHAR theta
ENCODING 234
SWIDTH 570 0
DWIDTH 8 0
BBX 5 8 2 0
BITMAP
70
88
88
F8
88
88
88
70
ENDCHAR
STARTCHAR kappa
ENCODING 235
SWIDTH 570 0
DWIDTH 8 0
BBX 6 6 1 0
BITMAP
CC
50
60
50
48
4C
ENDCHAR
STARTCHAR lambda
ENCODING 236
SWIDTH 570 0
DWIDTH 8 0
BBX 6 8 1 0
BITMAP
60
10
10
18
28
24
44
C4
ENDCHAR
STARTCHAR nu
ENCODING 238
SWIDTH 570 0
DWIDTH 8 0
BBX 6 6 1 0
BITMAP
C4
44
48
48
50
60
ENDCHAR
STARTCHAR partialdiff
ENCODING 239
SWIDTH 570 0
DWIDTH 8 0
BBX 5 8 2 0
BITMAP
60
10
70
88
88
88
88
70
ENDCHAR
STARTCHAR pi
ENCODING 240
SWIDTH 570 0
DWIDTH 8 0
BBX 6 6 1 0
BITMAP
FC
48
48
48
48
88
ENDCHAR
STARTCHAR psi
ENCODING 241
SWIDTH 570 0
DWIDTH 8 0
BBX 7 7 1 -1
BITMAP
92
92
54
38
10
10
10
ENDCHAR
STARTCHAR rho
ENCODING 242
SWIDTH 570 0
DWIDTH 8 0
BBX 6 8 1 -2
BITMAP
18
24
44
44
44
78
80
80
ENDCHAR
STARTCHAR sigma
ENCODING 243
SWIDTH 570 0
DWIDTH 8 0
BBX 7 6 1 0
BITMAP
3E
48
88
88
90
60
ENDCHAR
STARTCHAR tau
ENCODING 244
SWIDTH 570 0
DWIDTH 8 0
BBX 6 6 1 0
BITMAP
7C
90
20
20
20
18
ENDCHAR
STARTCHAR florin
ENCODING 246
SWIDTH 570 0
DWIDTH 8 0
BBX 6 12 1 -2
BITMAP
18
24
20
20
78
20
20
20
20
A0
A0
40
ENDCHAR
STARTCHAR omega
ENCODING 247
SWIDTH 570 0
DWIDTH 8 0
BBX 7 6 0 0
BITMAP
44
82
92
92
92
6C
ENDCHAR
STARTCHAR xi
ENCODING 248
SWIDTH 570 0
DWIDTH 8 0
BBX 6 11 1 -2
BITMAP
40
38
40
40
38
40
80
80
78
04
08
ENDCHAR
STARTCHAR upsilon
ENCODING 249
SWIDTH 570 0
DWIDTH 8 0
BBX 6 7 1 0
BITMAP
80
44
44
44
48
48
30
ENDCHAR
STARTCHAR zeta
ENCODING 250
SWIDTH 570 0
DWIDTH 8 0
BBX 5 11 1 -2
BITMAP
40
38
40
40
80
80
80
80
70
08
10
ENDCHAR
STARTCHAR arrowleft
ENCODING 251
SWIDTH 570 0
DWIDTH 8 0
BBX 7 5 1 2
BITMAP
20
40
FE
40
20
ENDCHAR
STARTCHAR arrowup
ENCODING 252
SWIDTH 570 0
DWIDTH 8 0
BBX 5 9 1 -1
BITMAP
20
70
A8
20
20
20
20
20
20
ENDCHAR
STARTCHAR arrowright
ENCODING 253
SWIDTH 570 0
DWIDTH 8 0
BBX 7 5 0 2
BITMAP
08
04
FE
04
08
ENDCHAR
STARTCHAR arrowdown
ENCODING 254
SWIDTH 570 0
DWIDTH 8 0
BBX 5 9 1 -1
BITMAP
20
20
20
20
20
20
A8
70
20
ENDCHAR
ENDFONT
